{"title":"Attack on Titan (Shingeki no Kyojin) S01E02 That Day (DUB) (1920","uid":10136012,"size":1116323247,"categoryP":"video","categoryS":"hd___tv_shows","magnet":"?xt=urn:btih:718207777f27b8c8c7ebc81757c2b8781816a5d9&amp;dn=Attack+on+Titan+%28Shingeki+no+Kyojin%29+S01E02+That+Day+%28DUB%29+%281920&amp;tr=udp%3A%2F%2Ftracker.openbittorrent.com%3A80&amp;tr=udp%3A%2F%2Fopen.demonii.com%3A1337&amp;tr=udp%3A%2F%2Ftracker.coppersurfer.tk%3A6969&amp;tr=udp%3A%2F%2Fexodus.desync.com%3A6969","seeders":2,"leechers":0,"uploader":"frostyon420","files":-1,"time":1399945731,"description":"\nALWAYS HD never RE-ENCODED! over 600 torrents and counting\n\nJoin me on SuprBay for updates on my torrents, or to make torrent requests (if i can access the content online). Please Let me know if need to fix something or if i need to re-seed any of my torrents.  &lt;a href=&quot;\nhttps://forum.suprbay.org/showthread.php?tid=369&quot; rel=&quot;nofollow&quot; target=&quot;_NEW&quot;&gt;\nhttps://forum.suprbay.org/showthread.php?tid=369&lt;/a&gt; \n\nMy RSS feed &lt;a href=&quot;\nhttp://rss.thepiratebay.se/user/178e8d96586bbd0dcb5c2729df9a5c4d&quot; rel=&quot;nofollow&quot; target=&quot;_NEW&quot;&gt;\nhttp://rss.thepiratebay.se/user/178e8d96586bbd0dcb5c2729df9a5c4d&lt;/a&gt;\n\n\n\nComplete name                            : C:UsersPhr0stYDesktopAttack on Titan - Shingeki no Kyojin Complete (1920x1080) [Phr0stY]Attack on Titan - Shingeki no Kyojin DUBAttack on Titan (Shingeki no Kyojin) S01E02 That Day (DUB) (1920x1080) [Phr0stY].mkv\nFormat                                   : Matroska\nFormat version                           : Version 4 / Version 2\nFile size                                : 1.04 GiB\nDuration                                 : 24mn 10s\nOverall bit rate                         : 6 155 Kbps\nEncoded date                             : UTC 2014-05-12 23:27:21\nWriting application                      : mkvmerge v6.8.0 ('Theme for Great Cities') 64bit built on Mar  2 2014 21:34:26\nWriting library                          : libebml v1.3.0 + libmatroska v1.4.1\n\nVideo\nID                                       : 2\nFormat                                   : AVC\nFormat/Info                              : Advanced Video Codec\nFormat profile                           : &lt;a class=&quot;__cf_email__&quot; href=&quot;/cdn-cgi/l/email-protection&quot; data-cfemail=&quot;a6eecfc1cee6ea938896&quot;&gt;[email&amp;#160;protected]&lt;/a&gt;&lt;script cf-hash='f9e31' type=&quot;text/javascript&quot;&gt;\n/* &lt;![CDATA[ */!function(){try{var t=&quot;currentScript&quot;in document?document.currentScript:function(){for(var t=document.getElementsByTagName(&quot;script&quot;),e=t.length;e--;)if(t[e].getAttribute(&quot;cf-hash&quot;))return t[e]}();if(t&amp;&amp;t.previousSibling){var e,r,n,i,c=t.previousSibling,a=c.getAttribute(&quot;data-cfemail&quot;);if(a){for(e=&quot;&quot;,r=parseInt(a.substr(0,2),16),n=2;a.length-n;n+=2)i=parseInt(a.substr(n,2),16)^r,e+=String.fromCharCode(i);e=document.createTextNode(e),c.parentNode.replaceChild(e,c)}}}catch(u){}}();/* ]]&gt; */&lt;/script&gt;\nFormat settings, CABAC                   : Yes\nFormat settings, ReFrames                : 5 frames\nCodec ID                                 : V_MPEG4/ISO/AVC\nDuration                                 : 24mn 10s\nBit rate                                 : 5 904 Kbps\nWidth                                    : 1 920 pixels\nHeight                                   : 1 080 pixels\nDisplay aspect ratio                     : 16:9\nFrame rate mode                          : Constant\nFrame rate                               : 23.976 fps\nColor space                              : YUV\nChroma subsampling                       : 4:2:0\nBit depth                                : 8 bits\nScan type                                : Progressive\nBits/(Pixel*Frame)                       : 0.119\nStream size                              : 1 021 MiB (96%)\nWriting library                          : x264 core 142 r2409 d6b4e63\nEncoding settings                        : cabac=1 / ref=5 / deblock=1:1:1 / analyse=0x3:0x113 / me=hex / subme=10 / psy=1 / psy_rd=1.00:0.00 / mixed_ref=1 / me_range=16 / chroma_me=1 / trellis=2 / 8x8dct=1 / cqm=0 / deadzone=21,11 / fast_pskip=1 / chroma_qp_offset=-2 / threads=2 / lookahead_threads=4 / sliced_threads=0 / nr=0 / decimate=1 / interlaced=0 / bluray_compat=0 / constrained_intra=0 / bframes=3 / b_pyramid=2 / b_adapt=2 / b_bias=0 / direct=1 / weightb=1 / open_gop=0 / weightp=2 / keyint=240 / keyint_min=23 / scenecut=40 / intra_refresh=0 / rc_lookahead=60 / rc=crf / mbtree=1 / crf=18.0 / qcomp=0.60 / qpmin=0 / qpmax=69 / qpstep=4 / vbv_maxrate=168750 / vbv_bufsize=168750 / crf_max=0.0 / nal_hrd=none / filler=0 / ip_ratio=1.40 / aq=2:1.00\nDefault                                  : Yes\nForced                                   : No\n\nAudio\nID                                       : 1\nFormat                                   : AC-3\nFormat/Info                              : Audio Coding 3\nMode extension                           : CM (complete main)\nFormat settings, Endianness              : Big\nCodec ID                                 : A_AC3\nDuration                                 : 24mn 10s\nBit rate mode                            : Constant\nBit rate                                 : 128 Kbps\nChannel(s)                               : 2 channels\nChannel positions                        : Front: L R\nSampling rate                            : 44.1 KHz\nBit depth                                : 16 bits\nCompression mode                         : Lossy\nDelay relative to video                  : 13ms\nStream size                              : 22.1 MiB (2%)\nDefault                                  : Yes\nForced                                   : No\n\n","torrent":{"xt":"urn:btih:718207777f27b8c8c7ebc81757c2b8781816a5d9","amp;dn":"Attack+on+Titan+%28Shingeki+no+Kyojin%29+S01E02+That+Day+%28DUB%29+%281920","amp;tr":["udp%3A%2F%2Ftracker.openbittorrent.com%3A80","udp%3A%2F%2Fopen.demonii.com%3A1337","udp%3A%2F%2Ftracker.coppersurfer.tk%3A6969","udp%3A%2F%2Fexodus.desync.com%3A6969"],"infoHash":"718207777f27b8c8c7ebc81757c2b8781816a5d9","infoHashBuffer":{"type":"Buffer","data":[113,130,7,119,127,39,184,200,199,235,200,23,87,194,184,120,24,22,165,217]},"announce":[],"urlList":[]}}